<?xml version="1.0" standalone="no"?><!DOCTYPE svg PUBLIC "-//W3C//DTD SVG 1.1//EN" "http://www.w3.org/Graphics/SVG/1.1/DTD/svg11.dtd"><svg t="1561209317174" class="icon" viewBox="0 0 1024 1024" version="1.1" xmlns="http://www.w3.org/2000/svg" p-id="16750" xmlns:xlink="http://www.w3.org/1999/xlink" width="200" height="200"><defs><style type="text/css"></style></defs><path d="M142.90432 479.5904c0-185.14432 150.07232-335.21664 335.21664-335.21664 185.14944 0 335.22176 150.07744 335.22176 335.21664 0 185.14432-150.07232 335.22176-335.22176 335.22176C292.97664 814.81216 142.90432 664.73472 142.90432 479.5904L142.90432 479.5904zM725.38112 785.73056l177.83808 177.79712 51.53792-51.55328-177.13152-177.1776c58.60864-68.70016 94.00832-157.81376 94.00832-255.20128 0-217.33376-176.1792-393.51296-393.51808-393.51296-217.33888 0-393.51296 176.1792-393.51296 393.51296 0 217.33888 176.1792 393.5232 393.51296 393.5232C571.79136 873.1136 657.81248 840.38144 725.38112 785.73056L725.38112 785.73056z" p-id="16751" fill="#707070"></path></svg>