<?xml version="1.0" standalone="no"?><!DOCTYPE svg PUBLIC "-//W3C//DTD SVG 1.1//EN" "http://www.w3.org/Graphics/SVG/1.1/DTD/svg11.dtd"><svg t="1561200278648" class="icon" viewBox="0 0 1024 1024" version="1.1" xmlns="http://www.w3.org/2000/svg" p-id="15845" xmlns:xlink="http://www.w3.org/1999/xlink" width="200" height="200"><defs><style type="text/css"></style></defs><path d="M491.523643 970.112696c-237.363036 0-430.462962-193.120392-430.462962-430.483428S254.160607 109.145839 491.523643 109.145839s430.483428 193.120392 430.483428 430.483428S728.886679 970.112696 491.523643 970.112696zM491.523643 171.865299c-202.777333 0-367.743502 164.986635-367.743502 367.763968s164.966169 367.763968 367.743502 367.763968 367.763968-164.986635 367.763968-367.763968S694.300976 171.865299 491.523643 171.865299z" p-id="15846" fill="#e6e6e6"></path><path d="M338.909803 535.056112c-59.309804 0-107.554598-48.244794-107.554598-107.554598s48.244794-107.554598 107.554598-107.554598 107.554598 48.244794 107.554598 107.554598S398.219607 535.056112 338.909803 535.056112zM338.909803 382.666376c-24.724101 0-44.835138 20.110013-44.835138 44.835138s20.110013 44.835138 44.835138 44.835138c24.724101 0 44.835138-20.110013 44.835138-44.835138S363.633904 382.666376 338.909803 382.666376z" p-id="15847" fill="#e6e6e6"></path><path d="M264.572748 867.274516l-53.655014-32.462343 127.807874-211.352639c6.921643-11.474332 18.558681-19.069311 31.890314-20.763906 13.168927-1.796926 26.500561 2.695389 36.137035 12.127202l77.29748 75.541487L679.070086 410.147264c8.636704-12.393261 22.212908-19.334347 37.811164-18.742876 15.026228 0.652869 28.501124 8.819876 36.035728 21.866007l147.019425 254.840082-54.307883 31.360242L713.49206 470.457862 522.740622 744.550427c-7.309476 10.555403-18.905582 17.35425-31.748075 18.579147-12.882402 1.306762-25.540699-3.245927-34.769898-12.270465l-76.214822-74.479295L264.572748 867.274516z" p-id="15848" fill="#e6e6e6"></path></svg>