<?xml version="1.0" standalone="no"?><!DOCTYPE svg PUBLIC "-//W3C//DTD SVG 1.1//EN" "http://www.w3.org/Graphics/SVG/1.1/DTD/svg11.dtd"><svg t="1563249492009" class="icon" viewBox="0 0 1024 1024" version="1.1" xmlns="http://www.w3.org/2000/svg" p-id="2155" xmlns:xlink="http://www.w3.org/1999/xlink" width="200" height="200"><defs><style type="text/css"></style></defs><path d="M460.132702 63.620993c-217.467917 0-395.984706 178.508603-395.984706 395.980613 0 217.48122 178.51679 395.984706 395.984706 395.984706 217.4628 0 395.980613-178.503487 395.980613-395.984706 0-217.47201-180.744527-395.980613-398.230863-395.980613l0 0L460.132702 63.620993zM689.300079 688.773076c-61.130266 61.143569-142.523017 94.815459-229.17147 94.815459-86.657662 0-168.05553-33.67189-229.180679-94.815459-61.126172-61.121056-94.802156-142.518924-94.802156-229.17147s33.663704-168.041204 94.802156-229.180679c61.126172-61.134359 142.523017-94.802156 229.180679-94.802156 86.648452 0 168.041204 33.667797 229.17147 94.802156 61.139475 61.139475 94.824669 142.527111 94.824669 229.180679S750.439554 627.638717 689.300079 688.773076L689.300079 688.773076 689.300079 688.773076zM947.05556 889.569288l-94.955652-96.215342c-14.610766-17.266245-41.398876-17.266245-58.434877 0-17.041118 14.800078-17.041118 41.943274 0 59.217706l94.964862 96.192829c14.59337 14.82259 41.380456 14.82259 58.444087 0C964.114075 933.986917 964.114075 906.830417 947.05556 889.569288L947.05556 889.569288 947.05556 889.569288z" p-id="2156" fill="#e6e6e6"></path></svg>