<?xml version="1.0" standalone="no"?><!DOCTYPE svg PUBLIC "-//W3C//DTD SVG 1.1//EN" "http://www.w3.org/Graphics/SVG/1.1/DTD/svg11.dtd"><svg t="1561885154349" class="icon" viewBox="0 0 1024 1024" version="1.1" xmlns="http://www.w3.org/2000/svg" p-id="3511" xmlns:xlink="http://www.w3.org/1999/xlink" width="200" height="200"><defs><style type="text/css"></style></defs><path d="M511.006881 64.592111c-247.195985 0-447.565479 200.369493-447.565479 447.566502 0 247.168356 200.369493 447.566502 447.565479 447.566502 247.168356 0 447.566502-200.398146 447.566502-447.566502C958.573383 264.961604 758.175237 64.592111 511.006881 64.592111zM511.006881 895.376551c-211.645304 0-383.217938-171.59924-383.217938-383.217938 0-211.646328 171.572634-383.217938 383.217938-383.217938s383.217938 171.572634 383.217938 383.217938C894.22482 723.776288 722.652186 895.376551 511.006881 895.376551z" p-id="3512" fill="#1afa29"></path><path d="M706.369338 385.719922c-11.580756 0-22.099321 4.700045-29.706579 12.308327L454.6135 620.581997l-137.570215-138.074705c-7.608282-7.609305-18.098193-12.308327-29.706579-12.308327-23.161512 0-41.958624 18.769482-41.958624 41.959647 0 11.580756 4.670369 22.043039 12.252045 29.622668l167.277818 167.837566c7.580652 7.580652 18.098193 12.308327 29.706579 12.308327 11.609409 0 22.099321-4.700045 29.707602-12.308327l0 0.028653 251.754814-252.343215c7.553023-7.580652 12.252045-18.070564 12.252045-29.65132C748.327962 404.491451 729.53085 385.719922 706.369338 385.719922z" p-id="3513" fill="#1afa29"></path></svg>