<?xml version="1.0" standalone="no"?><!DOCTYPE svg PUBLIC "-//W3C//DTD SVG 1.1//EN" "http://www.w3.org/Graphics/SVG/1.1/DTD/svg11.dtd"><svg t="1561188060562" class="icon" viewBox="0 0 1024 1024" version="1.1" xmlns="http://www.w3.org/2000/svg" p-id="10755" xmlns:xlink="http://www.w3.org/1999/xlink" width="200" height="200"><defs><style type="text/css"></style></defs><path d="M514.048 954.88H215.04c-16.896 0-30.72-13.824-30.72-30.72v-101.888c-88.064-82.944-136.704-193.536-136.704-312.32 2.56-244.224 211.456-442.88 466.432-442.88 122.88 0 239.104 46.592 327.168 131.072C929.28 282.624 977.92 394.24 977.92 512s-48.64 228.864-137.216 312.832c-87.552 83.968-203.776 130.048-326.656 130.048z m-268.288-61.44h268.288c221.696 0 402.432-171.008 402.432-381.44 0-211.456-180.736-383.488-402.432-383.488-221.184 0-402.432 171.008-404.992 381.44 0 105.472 45.056 203.264 126.464 275.456 6.656 5.632 10.24 14.336 10.24 23.04v84.992z m429.568-270.336c-59.904 0-108.544-48.64-108.544-108.544 0-60.928 47.616-108.544 108.544-108.544 59.904 0 108.544 48.64 108.544 108.544s-48.64 108.544-108.544 108.544z m0-155.648c-26.624 0-47.104 19.968-47.104 47.104 0 25.6 21.504 47.104 47.104 47.104s47.104-21.504 47.104-47.104-21.504-47.104-47.104-47.104z m-310.272 155.648c-59.904 0-108.544-48.64-108.544-108.544s48.64-108.544 108.544-108.544 108.544 48.64 108.544 108.544-48.64 108.544-108.544 108.544z m0-155.648c-25.6 0-47.104 21.504-47.104 47.104s21.504 47.104 47.104 47.104 47.104-21.504 47.104-47.104-21.504-47.104-47.104-47.104z" fill="#707070" p-id="10756"></path></svg>